<svg width="38" height="38" viewBox="0 0 38 38" fill="none" xmlns="http://www.w3.org/2000/svg">
<path d="M18.9992 37.3654C8.88093 37.3654 0.678467 32.8287 0.678467 27.2324V10.7663H37.3199L37.3199 27.2324C37.3199 32.8287 29.1174 37.3654 18.9992 37.3654Z" fill="#5A626E"/>
<path d="M35.2855 10.7675V27.2336C35.2855 30.3206 33.0311 33.0365 29.5855 34.9422C28.2365 35.6883 26.6875 36.3087 25.0027 36.7977C32.168 35.4216 37.3199 31.664 37.3199 27.2324V10.7675H35.2855Z" fill="#515663"/>
<path d="M37.3199 10.7663C37.3199 13.4538 35.3897 16.0311 31.9539 17.9314C28.5181 19.8317 23.8581 20.8993 18.9992 20.8993C14.1402 20.8993 9.48028 19.8317 6.04448 17.9314C2.60868 16.0311 0.67847 13.4538 0.678467 10.7663C0.67847 8.07891 2.60868 5.50149 6.04448 3.60118C9.48028 1.70088 14.1402 0.633331 18.9992 0.633331C23.8581 0.633332 28.5181 1.70088 31.9539 3.60118C35.3897 5.50149 37.3199 8.07891 37.3199 10.7663Z" fill="#E7EBEF"/>
<path d="M31.213 10.7663C31.213 12.278 29.9262 13.7277 27.6357 14.7967C25.3451 15.8656 22.2385 16.4661 18.9992 16.4661C17.3953 16.4661 15.807 16.3187 14.3252 16.0323C12.8433 15.7458 11.4969 15.3259 10.3627 14.7967C9.22858 14.2674 8.32892 13.6391 7.71512 12.9475C7.10132 12.256 6.7854 11.5148 6.7854 10.7663C6.7854 10.0178 7.10132 9.27659 7.71512 8.58505C8.32892 7.89352 9.22858 7.2652 10.3627 6.73593C11.4969 6.20665 12.8433 5.78677 14.3252 5.50033C15.807 5.21388 17.3953 5.0665 18.9992 5.0665C22.2385 5.0665 25.3451 5.667 27.6357 6.73593C29.9262 7.80485 31.213 9.25464 31.213 10.7663Z" fill="#59E78B"/>
<path d="M18.9992 5.06651C17.3953 5.06651 15.807 5.2139 14.3252 5.50034C12.8433 5.78678 11.4969 6.20666 10.3627 6.73594C9.22859 7.26522 8.32892 7.89353 7.71512 8.58506C7.10132 9.2766 6.7854 10.0178 6.7854 10.7663C6.78718 11.6123 7.19246 12.4474 7.97184 13.2112C8.75121 13.975 9.88514 14.6483 11.2914 15.1822C13.5763 14.4648 16.9199 13.0952 18.9992 10.7663C21.2415 8.255 21.991 6.3172 22.2488 5.27798C21.1909 5.13957 20.0979 5.06844 18.9992 5.06644V5.06651Z" fill="#FC6067"/>
<path d="M22.2489 5.27795C21.991 6.31717 21.2415 8.25497 18.9993 10.7663C18.9993 10.7663 22.9816 13.5376 29.6532 13.5482C30.6741 12.6983 31.2111 11.7406 31.2131 10.7663C31.2102 9.51994 30.3321 8.30832 28.713 7.31708C27.094 6.32583 24.8234 5.60956 22.2489 5.27795Z" fill="#FC6067"/>
<path d="M25.0212 1.2084C26.6988 1.69663 28.2414 2.31553 29.5855 3.05892C32.9945 4.9444 35.2336 7.62293 35.2829 10.718L35.2857 15.3863C36.6167 13.9573 37.314 12.3737 37.32 10.7662C37.3154 8.66437 36.1292 6.61532 33.9257 4.90286C31.7222 3.1904 28.6104 1.89929 25.0213 1.2084H25.0212Z" fill="#DBE1E7"/>
<path d="M18.9993 0C13.8315 0 9.14433 1.15073 5.69872 3.05646C2.2531 4.96219 0 7.67933 0 10.7663L0.00282089 27.2337C0.00319507 30.3206 2.25194 33.0365 5.69756 34.9422C9.14318 36.848 13.833 38 19.0007 38C24.1685 38 28.8543 36.848 32.3 34.9422C35.7456 33.0365 38 30.3206 38 27.2337V10.7675H37.9986V10.7663C37.9986 7.67933 35.7455 4.96219 32.2999 3.05646C28.8543 1.15075 24.1671 0 18.9994 0H18.9993ZM18.9993 1.26657C23.9497 1.26657 28.4228 2.3845 31.608 4.14618C34.7932 5.90786 36.6414 8.25691 36.6414 10.7663C36.6414 12.7436 35.4777 14.7125 33.1811 16.3882C32.4679 16.9085 33.3042 17.9067 34.0174 17.3863C35.1078 16.5907 35.9832 15.7019 36.6427 14.7566V27.2337C36.6427 29.743 34.7932 32.0908 31.608 33.8525C28.4228 35.6142 23.951 36.7334 19.0006 36.7334C14.0501 36.7334 9.57303 35.6142 6.38786 33.8525C3.20269 32.0908 1.35974 29.743 1.35974 27.2337L1.35718 14.7839C2.35551 16.2017 3.85398 17.4558 5.69881 18.4761C9.14442 20.3819 13.8316 21.5326 18.9993 21.5326C22.1547 21.5326 25.2593 21.0924 28.0404 20.2462C28.9347 20.0006 28.496 18.7478 27.619 19.0426C24.9895 19.8427 22.0192 20.266 18.9993 20.266C14.0489 20.266 9.57578 19.1481 6.3906 17.3863C3.20543 15.6247 1.35718 13.2756 1.35718 10.7663C1.35718 8.25691 3.20543 5.90786 6.39061 4.14618C9.57578 2.3845 14.0489 1.26657 18.9993 1.26657H18.9993ZM10.0603 6.16733C7.72652 7.25643 6.10826 8.85126 6.10826 10.7675C6.10826 12.6837 7.72652 14.2737 10.0603 15.3628C12.394 16.4519 15.5362 17.0969 19.0006 17.0969C22.465 17.0969 25.6033 16.4519 27.937 15.3628C30.2707 14.2737 31.8943 12.6837 31.8943 10.7675C31.8943 8.85126 30.2707 7.25643 27.937 6.16733C25.6032 5.07826 22.465 4.43318 19.0006 4.43318C15.5362 4.43318 12.394 5.07826 10.0603 6.16733ZM21.3702 5.81232C21.007 6.84503 20.2362 8.39331 18.4798 10.3606C16.6099 12.4548 13.5259 13.786 11.31 14.5043C9.42547 13.8042 7.46535 12.332 7.46535 10.7675C7.46535 9.53582 8.57913 8.2767 10.6659 7.30286C12.7527 6.32904 15.7195 5.69983 19.0006 5.69983C19.813 5.69983 20.6054 5.73956 21.3702 5.81232ZM22.7406 5.98683C24.5048 6.26157 26.078 6.71805 27.3313 7.30293C29.4181 8.27678 30.5372 9.53589 30.5372 10.7676C30.5372 11.4929 30.1387 12.2259 29.3935 12.9063C24.4458 12.8428 21.1993 11.2948 19.9946 10.6093C21.6167 8.66705 22.3855 7.06987 22.7406 5.98683ZM19.1225 11.5902C20.2413 12.2343 23.2283 13.7492 27.6176 14.0851C24.7567 15.455 21.5653 15.812 19.0006 15.8304C16.9287 15.8304 14.9834 15.5815 13.3045 15.1525C15.2399 14.3982 17.4517 13.2659 19.1225 11.5902ZM30.9096 17.7526C30.6936 17.8598 30.4728 17.9642 30.247 18.0655C29.4019 18.421 30.0084 19.6003 30.8341 19.2073C31.076 19.0988 31.3133 18.9861 31.5457 18.8708C32.3769 18.4229 31.6594 17.3486 30.9096 17.7526Z" fill="white"/>
</svg>
